<?xml version="1.0" encoding="UTF-8"?>
<svg version="1.1" xmlns="http://www.w3.org/2000/svg" width="5435" height="634">
<path d="M0 0 C160.71 0 321.42 0 487 0 C487.33 48.51 487.66 97.02 488 147 C504.57114504 161.3947604 504.57114504 161.3947604 521.4375 175.4375 C526.85856956 179.8514623 532.15841974 184.39782805 537.45703125 188.95703125 C542.40558716 193.21351925 547.3947854 197.42167006 552.38232422 201.63232422 C554.02908979 203.02459417 555.67310067 204.42005473 557.31640625 205.81640625 C562.32234652 210.06740059 567.3404038 214.29564292 572.4375 218.4375 C577.85856956 222.8514623 583.15841974 227.39782805 588.45703125 231.95703125 C593.40558716 236.21351925 598.3947854 240.42167006 603.38232422 244.63232422 C605.02908979 246.02459417 606.67310067 247.42005473 608.31640625 248.81640625 C619.61511144 258.74297059 619.61511144 258.74297059 631.6138913 267.73723388 C634 270 634 270 634.62099248 272.83077264 C634.61909388 273.93499936 634.61719528 275.03922608 634.61523914 276.17691422 C634.63017068 278.09139484 634.63017068 278.09139484 634.64540386 280.04455185 C634.63114338 281.4629944 634.61641644 282.88143233 634.60127258 284.29986572 C634.60345941 285.8011114 634.60784347 287.30235523 634.61424255 288.80358887 C634.62548208 292.94324807 634.6053583 297.0822633 634.58036365 301.22184068 C634.55857495 305.74891353 634.56583373 310.27595533 634.56945324 314.80306625 C634.57211478 323.59634124 634.54899702 332.38936155 634.5169466 341.18257104 C634.48099171 351.35074328 634.47697537 361.51876185 634.47302246 371.68701172 C634.44675478 398.54138161 634.37694942 425.3956946 634.3125 452.25 C634.209375 512.2275 634.10625 572.205 634 634 C472.96 634 311.92 634 146 634 C146 585.16 146 536.32 146 486 C144.68 485.34 143.36 484.68 142 484 C140.8737974 483.13140484 139.77869831 482.22127347 138.71484375 481.27734375 C138.10761475 480.74359131 137.50038574 480.20983887 136.87475586 479.65991211 C136.23546143 479.09151611 135.59616699 478.52312012 134.9375 477.9375 C133.58437887 476.74880878 132.2302065 475.56131318 130.875 474.375 C130.21242187 473.79492188 129.54984375 473.21484375 128.8671875 472.6171875 C126.43062696 470.50686101 123.94277142 468.46557686 121.4375 466.4375 C116.05123322 462.072629 110.79766357 457.56418381 105.54296875 453.04296875 C100.59441284 448.78648075 95.6052146 444.57832994 90.61767578 440.36767578 C88.97091021 438.97540583 87.32689933 437.57994527 85.68359375 436.18359375 C80.67765348 431.93259941 75.6595962 427.70435708 70.5625 423.5625 C65.14143044 419.1485377 59.84158026 414.60217195 54.54296875 410.04296875 C49.59441284 405.78648075 44.6052146 401.57832994 39.61767578 397.36767578 C37.97091021 395.97540583 36.32689933 394.57994527 34.68359375 393.18359375 C29.67765348 388.93259941 24.6595962 384.70435708 19.5625 380.5625 C18.73915728 379.84977558 17.91581455 379.13705116 17.06752205 378.40272903 C14.76162003 376.59656183 12.99216833 375.43441217 10.45016289 374.15205002 C5.88324586 371.55758624 2.50014033 368.68388464 0 364 C-2.57227613 353.62373425 -1.80615251 342.46007165 -1.62501821 331.84957749 C-1.5636158 327.32835075 -1.58435988 322.80733843 -1.59446907 318.28580856 C-1.60189468 309.51979883 -1.53743354 300.75580654 -1.44745047 291.99031441 C-1.34643554 281.84539741 -1.33551317 271.70168278 -1.32446289 261.55615234 C-1.25103219 234.78711635 -1.05557536 208.01852765 -0.875 181.25 C-0.58625 121.4375 -0.2975 61.625 0 0 Z M147 148 C147 259.87 147 371.74 147 487 C258.87 487 370.74 487 486 487 C486 375.13 486 263.26 486 148 C374.13 148 262.26 148 147 148 Z " fill="#FFFFFF" transform="translate(0,0)"/>
<path d="M0 0 C35.475 -0.04125 70.95 -0.0825 107.5 -0.125 C118.66263672 -0.14320801 129.82527344 -0.16141602 141.32617188 -0.18017578 C155.05566406 -0.18920898 155.05566406 -0.18920898 161.5020752 -0.19088745 C165.96270781 -0.1927356 170.42329183 -0.20016947 174.88391113 -0.21115112 C180.60353382 -0.2250421 186.32308758 -0.22895089 192.04272556 -0.22614455 C194.12318593 -0.2267299 196.20364913 -0.23059216 198.28409481 -0.23843026 C243.29174483 -0.39988706 294.25378703 5.30170045 329 37 C329.77730469 37.69609375 330.55460937 38.3921875 331.35546875 39.109375 C349.42277654 56.15048459 357.80677995 79.42218755 359.22265625 103.83984375 C359.81423912 129.58655891 352.6183888 155.70935735 335 175 C334.3179248 175.75361816 334.3179248 175.75361816 333.62207031 176.52246094 C325.64922312 185.22724164 317.04852307 191.84302114 307 198 C308.70542969 198.70962891 308.70542969 198.70962891 310.4453125 199.43359375 C330.09948051 207.7761335 348.63131868 219.10717996 361 237 C361.99580078 238.40765625 361.99580078 238.40765625 363.01171875 239.84375 C379.21794752 264.29200369 382.62086687 295.34330034 377.875 323.875 C371.75571594 350.23939207 356.61422991 372.00566571 333.92089844 386.81103516 C328.19082349 390.35773889 322.13481047 393.23151732 316 396 C314.83210938 396.53367187 313.66421875 397.06734375 312.4609375 397.6171875 C281.6473182 410.80350352 247.76828709 413.16935214 214.67651367 413.11352539 C212.29200142 413.11321865 209.90748908 413.11335323 207.52297688 413.11389065 C201.16724948 413.11411537 194.8115411 413.10834128 188.45581818 413.10128021 C182.48051395 413.09556344 176.50521423 413.0953159 170.52990723 413.09460449 C153.08243565 413.08936794 135.63496758 413.07540671 118.1875 413.0625 C59.6846875 413.0315625 59.6846875 413.0315625 0 413 C0 276.71 0 140.42 0 0 Z M96 73 C96 104.68 96 136.36 96 169 C114.93358053 169.08742127 114.93358053 169.08742127 133.8671875 169.14648438 C141.60227724 169.16433903 149.3372593 169.18534031 157.07226562 169.22631836 C163.31631263 169.2591864 169.56024397 169.2769103 175.80437088 169.28463173 C178.17310021 169.29012638 180.54182402 169.30085426 182.91050339 169.31719017 C206.199384 169.47125117 231.7999006 168.75530875 250.05859375 152.125 C259.06193495 142.52143605 262.55736605 130.83735453 262.24609375 117.85546875 C261.11183704 104.69449005 255.89874641 94.54542666 245.8125 86.03515625 C230.77553513 75.15424139 211.1343878 72.82001344 193.06420898 72.88647461 C192.00950912 72.88632858 190.95480927 72.88618256 189.8681488 72.8860321 C186.41077559 72.88672416 182.95345746 72.89448323 179.49609375 72.90234375 C177.08757049 72.90421044 174.67904685 72.90563316 172.27052307 72.90663147 C165.95277851 72.91043684 159.6350572 72.92025013 153.31732178 72.93133545 C145.72556793 72.9433978 138.13380629 72.94796124 130.54204559 72.95378876 C119.02801426 72.96346301 107.51403387 72.98263343 96 73 Z M96 240 C96 273 96 306 96 340 C118.69041413 340.08753015 118.69041413 340.08753015 141.38085938 340.14648438 C150.64580315 340.16422395 159.91066455 340.18497676 169.17553711 340.22631836 C175.92576258 340.25642451 182.67592066 340.27562277 189.42621142 340.28226548 C192.99326564 340.28614224 196.56012722 340.2951114 200.12711906 340.31719017 C237.87465084 340.59469768 237.87465084 340.59469768 270.375 323.1875 C274.10034211 319.172663 276.76988807 314.99240966 279 310 C279.3196875 309.31035156 279.639375 308.62070312 279.96875 307.91015625 C284.13536946 296.93420036 283.73474877 281.49020204 279.390625 270.67578125 C272.52982016 257.47451351 262.65052868 249.61267933 248.671875 244.87109375 C236.66770664 241.28835187 225.21672847 239.69621035 212.70410156 239.77294922 C211.43438507 239.77265717 210.16466858 239.77236511 208.85647583 239.77206421 C205.4150889 239.77149642 201.97384481 239.78315639 198.53249073 239.79721212 C194.92106181 239.80981646 191.30962868 239.81089756 187.69818115 239.81326294 C180.87743432 239.81944946 174.05675251 239.83582149 167.23603415 239.85596192 C158.0064547 239.88261676 148.77685714 239.89331645 139.54724884 239.90496635 C125.03145063 239.92370452 110.51578957 239.96356885 96 240 Z " fill="#FFFFFF" transform="translate(1965,107)"/>
<path d="M0 0 C207.13002598 0 207.13002598 0 227.4375 3.6875 C228.36522217 3.85411133 229.29294434 4.02072266 230.2487793 4.19238281 C247.96167568 7.55666126 264.85564588 12.98692244 281 21 C282.15628906 21.56460938 283.31257813 22.12921875 284.50390625 22.7109375 C297.9038552 29.58022541 309.20240409 38.60771925 320 49 C320.63164063 49.56847656 321.26328125 50.13695312 321.9140625 50.72265625 C344.45741773 71.60998302 357.01602978 106.01866235 358.20654297 136.19335938 C358.32718171 140.69163251 358.33400421 145.18793547 358.3125 149.6875 C358.30976578 150.87613144 358.30976578 150.87613144 358.30697632 152.08877563 C358.26111966 163.93487961 357.87489139 175.45038798 355 187 C354.82307617 187.7209082 354.64615234 188.44181641 354.46386719 189.18457031 C345.89075533 222.98839479 324.97038551 252.2151306 294.92919922 270.24267578 C288.40572873 274.06616665 281.78440643 277.6601456 275 281 C275.3403125 281.4854126 275.680625 281.9708252 276.03125 282.47094727 C283.03860671 292.46831141 290.03206914 302.47511019 297 312.5 C301.98748325 319.67549024 306.9849158 326.84377254 312 334 C317.69853797 342.13147541 323.371884 350.28023925 329.0390625 358.43359375 C333.34781361 364.63054273 337.66882356 370.81870845 342 377 C343.12895951 378.61324398 344.25786507 380.22652572 345.38671875 381.83984375 C347.30428659 384.5800702 349.22399184 387.3187439 351.14697266 390.05517578 C353.37210553 393.22198991 355.59257804 396.39203162 357.8125 399.5625 C358.51310547 400.55701172 359.21371094 401.55152344 359.93554688 402.57617188 C360.58201172 403.50107422 361.22847656 404.42597656 361.89453125 405.37890625 C362.47050049 406.1994751 363.04646973 407.02004395 363.63989258 407.86547852 C365 410 365 410 366 413 C352.71842376 413.53522912 339.43944689 413.94268072 326.14924622 414.19167995 C319.97580707 414.31126378 313.80978985 414.47306367 307.640625 414.73510742 C264.92577138 416.50326104 264.92577138 416.50326104 256.68457031 409.47789288 C252.03607443 404.6778755 249.34653199 398.98927536 247.08972168 392.7784729 C245.49788839 388.71976164 243.10376082 385.4604719 240.5 382 C239.63005977 380.74327468 238.76486573 379.48323944 237.90625 378.21875 C234.29330867 372.96356261 230.64483652 367.7330893 227 362.5 C222.48150682 356.01255448 217.97026976 349.52078164 213.5 343 C208.34230228 335.477121 203.13340839 327.9901552 197.91992188 320.50585938 C197.28376953 319.59255859 196.64761719 318.67925781 195.9921875 317.73828125 C195.36601028 316.87392456 194.73983307 316.00956787 194.09468079 315.11901855 C192 312 192 312 190.34135437 308.64819336 C186.92565735 302.19311479 186.92565735 302.19311479 181.02637482 298.26059532 C175.10832257 297.07556492 169.09240485 297.35893858 163.08984375 297.51171875 C161.37144733 297.51095712 159.65304334 297.50434466 157.93469238 297.49182129 C151.60196139 297.48632156 145.26953708 297.59359291 138.9375 297.6875 C117.6834375 297.8421875 117.6834375 297.8421875 96 298 C96 335.95 96 373.9 96 413 C64.32 413 32.64 413 0 413 C0 276.71 0 140.42 0 0 Z M96 79 C96 125.86 96 172.72 96 221 C111.4275 221.0825 126.855 221.165 142.75 221.25 C147.57979492 221.28641602 152.40958984 221.32283203 157.38574219 221.36035156 C161.80288133 221.37374814 161.80288133 221.37374814 166.22003174 221.3817749 C168.15252391 221.38782502 170.08500325 221.40169547 172.01739502 221.42230225 C198.58576621 221.69088798 223.53876316 217.19315112 243.8125 198.75 C257.74835982 183.63841007 261.86660804 164.12525979 261.13623047 144.14648438 C260.00323099 126.29463589 253.34505115 110.83411108 240.4375 98.3125 C219.65704836 80.52800305 192.1790113 78.48881484 166.01953125 78.70703125 C164.21203898 78.71145926 162.40454281 78.71450918 160.5970459 78.71618652 C154.00213741 78.73171646 147.40731204 78.77359831 140.8125 78.8125 C126.024375 78.874375 111.23625 78.93625 96 79 Z " fill="#FFFFFF" transform="translate(850,107)"/>
<path d="M0 0 C31.68 0 63.36 0 96 0 C96.01981934 7.26692871 96.03963867 14.53385742 96.06005859 22.02099609 C96.12500676 45.33106586 96.1995484 68.64109496 96.28005161 91.95111575 C96.29256895 95.57808733 96.30500196 99.2050592 96.31738281 102.83203125 C96.31984881 103.55402905 96.3223148 104.27602685 96.32485552 105.01990338 C96.36446845 116.67657778 96.39726624 128.33326174 96.42749982 139.98996381 C96.45872666 151.97047069 96.49738307 163.95093739 96.54279006 175.93139899 C96.56805377 182.65234747 96.58975924 189.37326626 96.60334396 196.09424973 C96.61626357 202.4323869 96.63842275 208.77042743 96.66738319 215.10851097 C96.67638216 217.42302207 96.68213101 219.73754869 96.68421364 222.05207634 C96.70192015 238.7552442 97.15791483 255.32334488 101.1875 271.625 C101.50678467 272.93283447 101.50678467 272.93283447 101.83251953 274.26708984 C106.95505781 294.17836336 117.30063259 313.57512029 135.328125 324.47900391 C159.74199737 338.35112541 189.88952182 340.86223609 217 334 C236.54448649 328.38170725 252.9044489 317.4333598 263.0234375 299.48046875 C277.55501337 272.55064011 278.12658679 242.52137398 278.20532227 212.63305664 C278.21491913 210.30574883 278.22493022 207.9784427 278.23532104 205.65113831 C278.26218039 199.37537804 278.28329175 193.0996104 278.30332303 186.82382512 C278.32530065 180.24951564 278.35263133 173.67522838 278.37937927 167.10093689 C278.42365992 156.08007845 278.46436537 145.05921077 278.50268555 134.03833008 C278.54213856 122.69424549 278.58358773 111.35017104 278.62768555 100.00610352 C278.63177196 98.95461836 278.63177196 98.95461836 278.63594092 97.88189108 C278.64962201 94.36470965 278.66334196 90.84752838 278.67708123 87.33034718 C278.79074468 58.22025227 278.89684197 29.11013426 279 0 C310.35 0 341.7 0 374 0 C374.04421015 30.94744832 374.08109229 61.89486581 374.10213066 92.84233591 C374.10463164 96.50792777 374.10722033 100.17351957 374.10986328 103.83911133 C374.11065021 104.93359847 374.11065021 104.93359847 374.11145304 106.05019646 C374.12012153 117.81668017 374.13587159 129.58314405 374.15430559 141.34961606 C374.17310418 153.45102868 374.18413761 165.55243102 374.18817699 177.65385765 C374.19065899 184.43926099 374.19655524 191.22462323 374.21146011 198.01001167 C374.22517434 204.41461363 374.22919507 210.81915298 374.22621536 217.22376823 C374.2267594 219.55715654 374.23065349 221.89054725 374.23841095 224.22392273 C374.2998033 243.66656904 373.65236662 263.14453167 369.75 282.25 C369.53311523 283.33369873 369.31623047 284.41739746 369.09277344 285.53393555 C362.86025249 315.54622791 350.52681516 343.10716565 330 366 C329.13318102 367.04655907 328.26988562 368.09604667 327.41015625 369.1484375 C324.25562036 372.88070849 320.74632449 375.88136656 317 379 C316.25878906 379.6290625 315.51757812 380.258125 314.75390625 380.90625 C278.77424814 410.68251878 232.57503972 420.49688231 186.875 420.3125 C185.93322906 420.31067719 184.99145813 420.30885437 184.02114868 420.30697632 C169.50757203 420.25978294 155.29042632 419.74805669 141 417 C140.0704248 416.82307617 139.14084961 416.64615234 138.18310547 416.46386719 C108.59065507 410.64289597 81.1013872 399.76835124 58 380 C57.19175781 379.31421875 56.38351562 378.6284375 55.55078125 377.921875 C38.59800917 363.12479293 26.17221601 345.49515852 17 325 C16.46890625 323.8140625 15.9378125 322.628125 15.390625 321.40625 C5.00253443 296.77469503 -0.20159717 269.73843994 -0.12025452 243.03437805 C-0.12110894 241.98775708 -0.12196337 240.94113611 -0.12284368 239.86279935 C-0.12447918 236.38678647 -0.11900897 232.91082281 -0.11352539 229.43481445 C-0.11324308 226.93076071 -0.11340212 224.42670689 -0.1139679 221.9226532 C-0.11419496 216.54749746 -0.11137489 211.17235678 -0.10573006 205.79720497 C-0.09757411 198.02581144 -0.09499565 190.25442376 -0.09374207 182.48302641 C-0.09155796 169.87190033 -0.08491531 157.26078075 -0.07543945 144.6496582 C-0.06624871 132.40519239 -0.05917602 120.16072834 -0.05493164 107.91625977 C-0.05466892 107.16045285 -0.05440619 106.40464593 -0.05413551 105.62593577 C-0.05283039 101.83395866 -0.0515667 98.04198154 -0.05032361 94.25000441 C-0.03997098 62.83333051 -0.02154346 31.41666871 0 0 Z " fill="#FFFFFF" transform="translate(1389,107)"/>
<path d="M0 0 C14.13377077 -0.39845888 28.26666253 -0.69639869 42.40491104 -0.88080692 C48.97114752 -0.96934384 55.53359878 -1.08928975 62.09765625 -1.2824707 C68.43929584 -1.46792639 74.77730952 -1.56897232 81.12145233 -1.61291313 C83.53477836 -1.64419953 85.94791704 -1.70530715 88.35968781 -1.79741096 C106.77114667 -2.47222242 106.77114667 -2.47222242 112.18147469 1.67028046 C115.92693244 5.6736461 118.56800799 10.14278518 120.99364853 15.03401279 C122.27138973 17.5301813 123.84715734 19.71384913 125.55859375 21.9296875 C126.0395752 22.58928467 126.52055664 23.24888184 127.01611328 23.9284668 C127.4851709 24.57082275 127.95422852 25.21317871 128.4375 25.875 C132.94227953 32.07436959 137.32109771 38.34719184 141.625 44.6875 C145.93328449 51.0337122 150.34336733 57.27931683 154.90893555 63.44262695 C159.88113618 70.16252236 164.67995517 77.00207374 169.48388672 83.84277344 C172.47942119 88.10501862 175.48717741 92.3586486 178.49316406 96.61352539 C181.03595777 100.21387879 183.57453547 103.81707833 186.10546875 107.42578125 C191.93345797 115.72616729 197.84740098 123.93636643 204 132 C212.71394794 119.70475149 221.33885664 107.34913444 229.93554688 94.97167969 C233.28792757 90.14609102 236.64411825 85.32315423 240 80.5 C241.33335242 78.58334661 242.66668573 76.66667993 244 74.75 C252 63.25 260 51.75 268 40.25 C268.62028076 39.35232407 269.24056152 38.45464813 269.87963867 37.5297699 C271.2161944 35.6199745 272.57316243 33.7241522 273.95825195 31.84925842 C277.48957459 27.00226177 280.33021459 22.53330079 282.41796875 16.89624023 C285.36922347 9.9031097 288.94074512 3.45883162 296 0 C311.47749224 -4.45788221 329.43700876 -2.25347279 345.30908203 -1.57928467 C351.47508534 -1.3424209 357.64324267 -1.23863131 363.8125 -1.12304688 C375.88070223 -0.87760755 387.93925619 -0.48603126 400 0 C398.73765777 3.24984913 397.48692834 5.98179807 395.41796875 8.79296875 C394.64839844 9.84774414 394.64839844 9.84774414 393.86328125 10.92382812 C393.31027344 11.67083984 392.75726562 12.41785156 392.1875 13.1875 C391.00376568 14.80588677 389.82017591 16.42437929 388.63671875 18.04296875 C388.03134277 18.86716309 387.4259668 19.69135742 386.80224609 20.54052734 C384.01410497 24.34542219 381.2577876 28.17308077 378.5 32 C377.41683927 33.50012464 376.3335054 35.00012429 375.25 36.5 C374.71375 37.2425 374.1775 37.985 373.625 38.75 C316.75 117.5 316.75 117.5 315.12426758 119.75097656 C314.04332809 121.24768701 312.96243599 122.74443168 311.8815918 124.24121094 C309.1370246 128.04182637 306.39158034 131.84180298 303.64453125 135.640625 C298.74654666 142.41540742 293.85255912 149.19258102 289 156 C283.61089775 163.56010923 278.17081617 171.08316768 272.73046875 178.60644531 C269.71448741 182.77809897 266.70115784 186.95166768 263.6875 191.125 C262.58725095 192.64844571 261.48699162 194.171884 260.38671875 195.6953125 C259.92483154 196.33484863 259.46294434 196.97438477 258.98706055 197.63330078 C258.49846558 198.30981689 258.49846558 198.30981689 258 199 C261.05300542 204.6357435 264.59320333 209.69083971 268.4375 214.8125 C269.69213104 216.4994612 270.9460196 218.18697482 272.19921875 219.875 C273.14933838 221.15310547 273.14933838 221.15310547 274.11865234 222.45703125 C277.02613145 226.38699523 279.89148983 230.34683544 282.75 234.3125 C283.28939209 235.06055908 283.82878418 235.80861816 284.38452148 236.5793457 C288.00305244 241.60376401 291.60477132 246.64004675 295.19897461 251.68188477 C300.20984585 258.705936 305.27076203 265.69387817 310.32666016 272.68554688 C313.05263139 276.45593019 315.77621534 280.22803694 318.5 284 C319.58332144 285.50000859 320.66665479 287.00000858 321.75 288.5 C323.91666667 291.5 326.08333333 294.5 328.25 297.5 C328.7864917 298.24282227 329.3229834 298.98564453 329.87573242 299.75097656 C330.95667191 301.24768701 332.03756401 302.74443168 333.1184082 304.24121094 C335.8629754 308.04182637 338.60841966 311.84180298 341.35546875 315.640625 C346.65682231 322.97333833 351.94655437 330.31361844 357.19873047 337.68164062 C362.2098587 344.70564895 367.27069471 351.69378507 372.32666016 358.68554688 C375.59229533 363.20235771 378.85469618 367.721505 382.11767578 372.24023438 C384.86251144 376.04115775 387.60818127 379.84147332 390.35546875 383.640625 C392.53872701 386.65982838 394.71958128 389.6807435 396.8984375 392.703125 C398.93762393 395.53171506 400.98516401 398.35395303 403.0390625 401.171875 C403.96366691 402.44782592 404.8881528 403.72386273 405.8125 405 C406.23942139 405.58168945 406.66634277 406.16337891 407.10620117 406.76269531 C410 410.77332437 410 410.77332437 410 413 C395.71829829 413.3514201 381.43727254 413.61439721 367.15212536 413.77718258 C360.51793755 413.85533262 353.88666191 413.96123619 347.25415039 414.1315918 C340.84776244 414.2951015 334.44416648 414.38436536 328.03585243 414.42315865 C325.59671377 414.45078505 323.15772097 414.50474147 320.71977806 414.58595085 C302.1100047 415.18095428 302.1100047 415.18095428 296.9090519 411.53367996 C293.43893283 408.06348383 291.05006178 404.15442621 288.8940382 399.77160454 C287.70153245 397.4085639 286.20831108 395.31773858 284.64453125 393.1875 C283.69816339 391.79326392 282.75415149 390.39742579 281.8125 389 C280.71174386 387.37966025 279.610142 385.75989479 278.5078125 384.140625 C277.9396582 383.30595703 277.37150391 382.47128906 276.78613281 381.61132812 C273.61315782 376.97243522 270.40016367 372.36145658 267.1875 367.75 C266.1807019 366.30463867 266.1807019 366.30463867 265.15356445 364.83007812 C263.78535103 362.86640073 262.41694201 360.9028596 261.04833984 358.93945312 C257.69581651 354.12844228 254.34811999 349.31407577 251 344.5 C249.66669052 342.58331674 248.33335717 340.66665009 247 338.75 C239 327.25 239 327.25 236.99853516 324.37280273 C235.67019917 322.4633806 234.34174934 320.55403766 233.01318359 318.64477539 C229.60243509 313.74292297 226.19390297 308.83955211 222.7890625 303.93359375 C213.97988877 291.24131091 213.97988877 291.24131091 205.0625 278.625 C204.65531738 278.05386475 204.24813477 277.48272949 203.82861328 276.89428711 C202.04600253 274.33882402 202.04600253 274.33882402 200 272 C199.32964722 272.98673706 199.32964722 272.98673706 198.64575195 273.9934082 C189.63525064 287.25486406 180.6131953 300.50813365 171.55175781 313.73486328 C168.90845346 317.5933557 166.26649914 321.45277157 163.625 325.3125 C163.09358398 326.08899902 162.56216797 326.86549805 162.01464844 327.66552734 C157.19705796 334.70739732 152.3913804 341.75736592 147.58642578 348.80786133 C143.56376062 354.7094597 139.53474275 360.60665328 135.5 366.5 C130.76767296 373.41450845 126.03722132 380.33029175 121.3125 387.25 C120.73113281 388.10013672 120.14976562 388.95027344 119.55078125 389.82617188 C118.97328125 390.67244141 118.39578125 391.51871094 117.80078125 392.390625 C117.21302414 393.20903366 116.62526703 394.02744232 116.0196991 394.87065125 C114.49133172 397.23872406 113.42175691 399.23179454 112.32929993 401.77754211 C110.24312344 406.21059818 108.006497 410.06016746 104 413 C96.02372003 415.74131183 87.03578475 414.74049645 78.7421875 414.46484375 C76.26789803 414.43684037 73.79352495 414.41550092 71.31912231 414.40052795 C64.82970493 414.34345586 58.34538455 414.19631219 51.85797119 414.02996826 C45.22888976 413.87606817 38.59915356 413.80792081 31.96875 413.73242188 C18.97700125 413.57191114 5.98877256 413.31908245 -7 413 C-5.79532578 409.90288477 -4.67295019 407.27765131 -2.63671875 404.64453125 C-2.16886963 404.03174316 -1.70102051 403.41895508 -1.21899414 402.78759766 C-0.46090454 401.80992432 -0.46090454 401.80992432 0.3125 400.8125 C1.40505683 399.37998129 2.49615099 397.9463461 3.5859375 396.51171875 C4.15022461 395.76970215 4.71451172 395.02768555 5.29589844 394.26318359 C8.06274128 390.58859432 10.75208635 386.85931422 13.4375 383.125 C13.97745605 382.37508789 14.51741211 381.62517578 15.07373047 380.85253906 C16.71682569 378.56908052 18.35844345 376.28456483 20 374 C27.19856631 363.99303418 34.44253046 354.02308463 41.76708984 344.10791016 C47.90919634 335.78497251 53.95790683 327.39567785 60 319 C67.20063208 308.99449602 74.44250786 299.02311522 81.76708984 289.10791016 C87.90919634 280.78497251 93.95790683 272.39567785 100 264 C107.19326031 254.00473932 114.42598512 244.04223166 121.74511719 234.13867188 C126.4837147 227.71966416 131.16616591 221.26139815 135.82617188 214.78515625 C136.33083984 214.08390625 136.83550781 213.38265625 137.35546875 212.66015625 C138.04842041 211.6858667 138.04842041 211.6858667 138.75537109 210.69189453 C140 209 140 209 141.92578125 206.80859375 C143.24266572 205.00689302 143.24266572 205.00689302 142.72900391 202.6328125 C141.97601904 199.91339226 141.08493762 198.3152363 139.41015625 196.06640625 C138.87841797 195.34259766 138.34667969 194.61878906 137.79882812 193.87304688 C137.22583984 193.11056641 136.65285156 192.34808594 136.0625 191.5625 C134.86552786 189.93906565 133.66891653 188.31536522 132.47265625 186.69140625 C131.87984863 185.89234863 131.28704102 185.09329102 130.67626953 184.27001953 C128.41369027 181.20601401 126.2032185 178.10680884 124 175 C120.23369468 169.71068678 116.43292033 164.44690996 112.625 159.1875 C107.87461056 152.62373005 103.18049019 146.02309566 98.52001953 139.39526367 C94.88581848 134.23479354 91.20345812 129.11094815 87.5 124 C82.78959343 117.49941517 78.13702392 110.9613612 73.51953125 104.39453125 C69.88545434 99.2343328 66.20328599 94.1107106 62.5 89 C57.78959343 82.49941517 53.13702392 75.9613612 48.51953125 69.39453125 C44.88545434 64.2343328 41.20328599 59.1107106 37.5 54 C32.79389614 47.50535311 28.14426536 40.97416928 23.53271484 34.41210938 C19.25924977 28.34144542 14.91458406 22.32365401 10.5390625 16.32617188 C0 1.82151826 0 1.82151826 0 0 Z " fill="#FFFFFF" transform="translate(2788,107)"/>
<path d="M0 0 C217.22665573 0 217.22665573 0 237 4.3125 C238.03632568 4.5305127 239.07265137 4.74852539 240.14038086 4.97314453 C265.64142429 10.4945005 289.46441814 20.25075149 308 39 C308.81210937 39.80179688 309.62421875 40.60359375 310.4609375 41.4296875 C329.10666262 60.83906007 334.41388503 86.49056662 334.1484375 112.51953125 C333.65676597 136.1399152 325.61947263 158.20651084 310 176 C309.36707031 176.82371094 308.73414062 177.64742187 308.08203125 178.49609375 C301.91481263 185.91295517 293.36898446 191.26482241 285.3359375 196.46875 C283.13204386 197.80005038 283.13204386 197.80005038 282 199 C283.4540625 199.49306641 283.4540625 199.49306641 284.9375 199.99609375 C299.93431007 205.24809335 313.1770697 212.24307161 325 223 C325.70382812 223.62261719 326.40765625 224.24523437 327.1328125 224.88671875 C346.98842242 243.45755391 355.09538179 271.11828254 356.25390625 297.56640625 C356.93613414 326.30484817 348.70988125 352.29568056 328.85400391 373.59790039 C307.66170475 395.47935157 277.32569669 405.1639733 248 410 C247.15603857 410.13927225 246.31207714 410.2785445 245.44254112 410.42203712 C221.617034 414.12164129 197.51795009 413.39167946 173.48271942 413.30384064 C167.96743791 413.28652667 162.45219871 413.28593902 156.93688965 413.28381348 C140.89540192 413.2681833 124.85394842 413.22629971 108.8125 413.1875 C72.904375 413.125625 36.99625 413.06375 0 413 C0 276.71 0 140.42 0 0 Z M60 49 C60 92.23 60 135.46 60 180 C80.851875 180.04125 101.70375 180.0825 123.1875 180.125 C133.00278442 180.15231201 133.00278442 180.15231201 143.01635742 180.18017578 C148.96762744 180.18687149 148.96762744 180.18687149 154.91889954 180.19088745 C157.53555837 180.19392527 160.1520123 180.20010868 162.76863098 180.21115112 C213.37070653 180.53790132 213.37070653 180.53790132 257.3515625 157.7734375 C270.33525082 143.80520409 274.67750087 128.06765743 274.24609375 109.47265625 C273.57012237 93.60246251 267.03753516 80.16104181 255.53271484 69.33691406 C236.1205126 52.40457582 208.13496368 48.81526301 183.40209961 48.88647461 C182.05103558 48.8867572 180.69997141 48.88659734 179.34890747 48.8860321 C175.70698091 48.88574694 172.06508775 48.89159814 168.4231689 48.89860606 C164.6075182 48.90488647 160.79186662 48.90544709 156.97621155 48.90663147 C149.76227141 48.90973102 142.54834655 48.91792576 135.33441311 48.92798096 C125.57806386 48.94128274 115.82171039 48.94665313 106.06535435 48.95248318 C90.7102248 48.96186665 75.35512749 48.98179474 60 49 Z M60 228 C60 273.21 60 318.42 60 365 C93.2578125 365.0309375 93.2578125 365.0309375 127.1875 365.0625 C137.6292688 365.07615601 137.6292688 365.07615601 148.28198242 365.09008789 C154.60581183 365.09343547 154.60581183 365.09343547 160.92964172 365.09544373 C163.71289391 365.09636301 166.49612637 365.10005995 169.27937317 365.10557556 C228.63221614 366.57745514 228.63221614 366.57745514 279.8203125 340.33203125 C293.87036887 325.29998169 295.81500507 307.52008234 295.17919922 287.82275391 C294.22102067 272.72948359 287.12494743 259.09576727 276 249 C246.52417015 226.2583485 207.07406809 227.6631435 171.69068527 227.79721212 C167.74700404 227.80994291 163.80331776 227.81090719 159.85961914 227.81326294 C152.433661 227.81941347 145.00776363 227.8357346 137.58183193 227.85596192 C127.51750001 227.88276518 117.45315079 227.89334566 107.38879204 227.90496635 C91.59248274 227.92362199 75.79630152 227.96350957 60 228 Z " fill="#FFFFFF" transform="translate(4580,107)"/>
<path d="M0 0 C96.36 0 192.72 0 292 0 C292 17.16 292 34.32 292 52 C215.44 52 138.88 52 60 52 C60 93.58 60 135.16 60 178 C128.31 178 196.62 178 267 178 C267 194.83 267 211.66 267 229 C198.69 229 130.38 229 60 229 C60 272.56 60 316.12 60 361 C139.2 361 218.4 361 300 361 C300 378.16 300 395.32 300 413 C201 413 102 413 0 413 C0 276.71 0 140.42 0 0 Z " fill="#FFFFFF" transform="translate(5135,107)"/>
<path d="M0 0 C19.8 0 39.6 0 60 0 C60.01458252 7.54891113 60.02916504 15.09782227 60.04418945 22.87548828 C60.09308151 47.1065907 60.15652736 71.33763442 60.22898628 95.56867713 C60.24025269 99.34070631 60.25139143 103.11273584 60.26245117 106.88476562 C60.26465486 107.63562033 60.26685854 108.38647504 60.269129 109.16008292 C60.30437619 121.27318018 60.32931101 133.38627739 60.35034702 145.49940671 C60.37220985 157.95455025 60.40535823 170.409628 60.44870156 182.86471546 C60.4750391 190.53281801 60.49286567 198.2008388 60.49934604 205.86898427 C60.50528842 211.77673736 60.52703096 217.68437071 60.55427551 223.59206581 C60.5629807 225.99519754 60.56679418 228.39835348 60.56500816 230.80150032 C60.55086886 258.6356153 63.57071343 285.78075559 76 311 C76.495 312.01707031 76.99 313.03414063 77.5 314.08203125 C80.91308651 320.71343574 85.08002404 326.40705135 90 332 C90.66644531 332.76183594 91.33289062 333.52367187 92.01953125 334.30859375 C111.43957237 355.09776579 140.95131316 362.6775182 168.47998047 363.85913086 C199.99692332 364.8332247 231.84122697 358.38958561 256 337 C279.16245164 314.8589367 288.90652919 280.76365934 290.09772027 249.4294765 C290.14083906 246.69614159 290.15540795 243.96423361 290.15821838 241.2305603 C290.16562535 239.67416114 290.16562535 239.67416114 290.17318195 238.08631957 C290.18845078 234.63485908 290.19688858 231.18341703 290.20532227 227.73193359 C290.21490915 225.2477299 290.2249197 222.76352781 290.23532104 220.27932739 C290.25671115 214.94399934 290.27517212 209.60867365 290.29092598 204.27332687 C290.31370811 196.55945973 290.341839 188.84561926 290.37124526 181.13177486 C290.41881938 168.61439167 290.46211089 156.09699753 290.50268555 143.57958984 C290.54209244 131.42528431 290.58353098 119.27098848 290.62768555 107.11669922 C290.63177196 105.99155574 290.63177196 105.99155574 290.63594092 104.8436821 C290.64962125 101.08040236 290.66334135 97.31712278 290.67708123 93.55384326 C290.79088595 62.36924796 290.89693714 31.18463311 291 0 C310.14 0 329.28 0 349 0 C349.06631397 32.45915895 349.12163764 64.91825138 349.15319599 97.37745783 C349.15694747 101.22201627 349.1608305 105.06657458 349.16479492 108.91113281 C349.16558185 109.67641597 349.16636878 110.44169913 349.16717956 111.23017269 C349.18018267 123.57151373 349.20380795 135.91281223 349.23145839 148.25412816 C349.25965524 160.94654068 349.27620619 173.63893114 349.28226548 186.33137369 C349.28635256 194.14384443 349.29919216 201.95619489 349.3237494 209.76862854 C349.34169717 215.79039031 349.3433301 221.81205175 349.33932304 227.83384323 C349.34013918 230.28130705 349.34598135 232.72877601 349.35761642 235.17621231 C349.52207793 271.59944236 344.23749651 308.88359718 326 341 C325.37480469 342.11246094 324.74960937 343.22492188 324.10546875 344.37109375 C303.28811632 379.68851651 270.15194265 401.53511353 231 412 C224.05843045 413.69044697 217.0647766 414.9508841 210 416 C209.21544434 416.11714355 208.43088867 416.23428711 207.62255859 416.35498047 C157.91475562 423.3667917 103.47659371 415.56335011 62 386 C58.49756068 383.15717127 55.25158877 380.12223081 52 377 C50.65026217 375.86969025 49.29625993 374.744448 47.9375 373.625 C38.52843588 365.36614212 31.5572726 354.57115126 25 344 C24.64550781 343.42862305 24.29101562 342.85724609 23.92578125 342.26855469 C3.43284679 308.44736114 -0.52711452 267.28048842 -0.34057617 228.64013672 C-0.33972706 226.12401846 -0.34021057 223.60789945 -0.34190369 221.09178162 C-0.34257928 215.7364825 -0.33426295 210.38132122 -0.31719017 205.0260582 C-0.2925241 197.28383035 -0.28496716 189.54165511 -0.2812262 181.79939224 C-0.27470426 169.2298378 -0.25486055 156.66034266 -0.22631836 144.09082031 C-0.19866625 131.90039358 -0.17748772 119.70998312 -0.16479492 107.51953125 C-0.16400675 106.76467819 -0.16321858 106.00982513 -0.16240653 105.23209773 C-0.15849064 101.44419616 -0.1546997 97.65629447 -0.15097082 93.86839271 C-0.12000793 62.57887586 -0.06477807 31.28946965 0 0 Z " fill="#FFFFFF" transform="translate(4002,107)"/>
<path d="M0 0 C19.47 0 38.94 0 59 0 C59.33 75.24 59.66 150.48 60 228 C76.37235243 211.84835546 76.37235243 211.84835546 92 195 C94.16882383 192.76608542 96.34537664 190.55893578 98.5625 188.375 C99.15748291 187.78380371 99.75246582 187.19260742 100.36547852 186.58349609 C102.87099056 184.09408927 105.38252265 181.61078987 107.89355469 179.12695312 C115.93204411 171.2854872 115.93204411 171.2854872 123.5 163 C129.48489321 155.95012579 136.32447152 149.62489099 142.89355469 143.12695312 C150.93204411 135.2854872 150.93204411 135.2854872 158.5 127 C164.48489321 119.95012579 171.32447152 113.62489099 177.89355469 107.12695312 C185.93204411 99.2854872 185.93204411 99.2854872 193.5 91 C199.48489321 83.95012579 206.32447152 77.62489099 212.89355469 71.12695312 C220.91778924 63.30229218 220.91778924 63.30229218 228.46875 55.03125 C234.63614913 47.76639388 241.69828071 41.25163928 248.46630859 34.55419922 C256.74026082 26.48935887 256.74026082 26.48935887 264.53125 17.96875 C265.0679834 17.38432129 265.6047168 16.79989258 266.15771484 16.19775391 C267.95441272 14.14715641 267.95441272 14.14715641 269.07989502 12.32489014 C272.51179196 7.01720789 276.18633146 2.71078868 282 0 C292.6207691 -2.19543267 303.71219436 -1.3915366 314.48352051 -0.96130371 C318.49187722 -0.81665014 322.5014904 -0.75384903 326.51171875 -0.68359375 C334.34455693 -0.53457923 342.17120755 -0.29651533 350 0 C348.47396585 3.21630141 346.90199229 5.28769299 344.3125 7.75 C341.68215367 10.30989062 339.1822473 12.88527382 336.8125 15.6875 C333.55569937 19.48335728 330.0538727 22.98622176 326.5 26.5 C323.05060998 29.91069262 319.63880013 33.29621585 316.5 37 C312.83610259 41.32339894 308.78628354 45.23937981 304.76000977 49.22045898 C301.29613554 52.66036521 298.02875066 56.1855385 294.87109375 59.91015625 C291.85780378 63.27573064 288.6127901 66.40689608 285.39990234 69.58056641 C282.6757179 72.28428749 280.04649806 75.00749731 277.5625 77.9375 C274.39990018 81.65957693 270.97029304 85.06866072 267.5 88.5 C264.05062117 91.91070324 260.63880098 95.29621484 257.5 99 C253.8354347 103.32418706 249.78479134 107.24082291 245.7578125 111.22265625 C242.89425883 114.06641577 240.1112281 116.91875084 237.5 120 C233.8354347 124.32418706 229.78479134 128.24082291 225.7578125 132.22265625 C222.89425883 135.06641577 220.1112281 137.91875084 217.5 141 C213.8354347 145.32418706 209.78479134 149.24082291 205.7578125 153.22265625 C202.89425883 156.06641577 200.1112281 158.91875084 197.5 162 C193.83610259 166.32339894 189.78628354 170.23937981 185.76000977 174.22045898 C182.29613554 177.66036521 179.02875066 181.1855385 175.87109375 184.91015625 C172.85780378 188.27573064 169.6127901 191.40689608 166.39990234 194.58056641 C163.6757179 197.28428749 161.04649806 200.00749731 158.5625 202.9375 C155.39990018 206.65957693 151.97029304 210.06866072 148.5 213.5 C145.05062117 216.91070324 141.63880098 220.29621484 138.5 224 C134.8354347 228.32418706 130.78479134 232.24082291 126.7578125 236.22265625 C123.89425883 239.06641577 121.1112281 241.91875084 118.5 245 C114.8354347 249.32418706 110.78479134 253.24082291 106.7578125 257.22265625 C103.89425883 260.06641577 101.1112281 262.91875084 98.5 266 C94.8354347 270.32418706 90.78479134 274.24082291 86.7578125 278.22265625 C83.32282102 281.63390355 80.08414734 285.12709668 76.95703125 288.82421875 C73.61108707 292.54416068 70.01624576 296.0226202 66.44140625 299.52148438 C61.92296318 303.59345476 61.92296318 303.59345476 59.73828697 309.02458477 C59.72999084 310.19295738 59.72999084 310.19295738 59.7215271 311.38493347 C59.71036362 312.28095779 59.69920013 313.17698212 59.68769836 314.10015869 C59.68553818 315.08055115 59.68337799 316.0609436 59.68115234 317.07104492 C59.66608391 318.62251976 59.66608391 318.62251976 59.65071106 320.20533752 C59.61977501 323.63037552 59.60281486 327.05533498 59.5859375 330.48046875 C59.56723425 332.85273418 59.54766148 335.2249929 59.5272522 337.59724426 C59.47583601 343.8459783 59.43626104 350.09473393 59.39910889 356.34356689 C59.35210141 363.83846212 59.29046303 371.33324941 59.23126221 378.82805634 C59.14293442 390.21866089 59.07325245 401.60924355 59 413 C39.53 413 20.06 413 0 413 C0 276.71 0 140.42 0 0 Z " fill="#FFFFFF" transform="translate(3479,107)"/>
<path d="M0 0 C32.01 0 64.02 0 97 0 C97 136.29 97 272.58 97 413 C64.99 413 32.98 413 0 413 C0 276.71 0 140.42 0 0 Z " fill="#FFFFFF" transform="translate(2525,107)"/>
<path d="M0 0 C9.90088069 -0.2321901 19.8011091 -0.40962503 29.7041626 -0.51812172 C34.30326818 -0.5702097 38.90050513 -0.64079217 43.49853516 -0.75439453 C47.94019773 -0.86344072 52.38006928 -0.92291928 56.82296753 -0.94877243 C58.51362301 -0.96718263 60.20418552 -1.00313848 61.89407349 -1.05730057 C75.13389029 -1.46458193 75.13389029 -1.46458193 79.76599121 2.1708374 C81.79614574 4.69061067 83.40574822 7.1907935 85 10 C85.93837361 11.18103581 86.90445465 12.34101036 87.90625 13.46875 C92.67424276 19.0409825 97.35176747 24.65714911 101.90625 30.40625 C104.38811041 33.48079349 106.93848513 36.49179044 109.5 39.5 C113.39498709 44.07422189 117.18773515 48.7116004 120.91796875 53.421875 C123.33084092 56.40967168 125.81796079 59.33056197 128.3125 62.25 C132.11744166 66.7063918 135.78798412 71.24171687 139.375 75.875 C143.84984563 81.64753471 148.55823743 87.17759172 153.37011719 92.67089844 C157.02581559 96.85102459 160.54073983 101.11292274 163.9765625 105.4765625 C166.42801178 108.53377531 168.95896224 111.51719269 171.5 114.5 C175.39509964 119.0741228 179.18773904 123.7116053 182.91796875 128.421875 C185.33084092 131.40967168 187.81796079 134.33056197 190.3125 137.25 C194.11743778 141.70638726 197.78807767 146.24164765 201.375 150.875 C205.34456242 155.99759502 209.48118747 160.9367415 213.75 165.8125 C227 180.95729853 227 180.95729853 227 184 C218.04637246 184.25587068 209.09401896 184.4508095 200.13752174 184.56993389 C195.97756675 184.62713655 191.82012781 184.70458641 187.66162109 184.82983398 C183.64133762 184.95014835 179.62345875 185.01528175 175.60151291 185.04364967 C174.07429528 185.06383849 172.5471966 185.10326863 171.02101517 185.16303062 C159.12600476 185.60990894 159.12600476 185.60990894 153.92767334 181.67349243 C151.37443353 178.89723731 149.17708603 176.07660323 147 173 C145.48945305 171.1374437 143.96995082 169.28207652 142.4375 167.4375 C141.70402344 166.52871094 140.97054687 165.61992187 140.21484375 164.68359375 C138.04367173 162.05291443 135.79758643 159.52057576 133.5 157 C130.40444804 153.60401318 127.44848793 150.13828469 124.5625 146.5625 C120.70174863 141.788597 116.62562925 137.26611572 112.46875 132.75 C109.27118704 129.18815771 106.28611657 125.47434167 103.28125 121.75 C100.93281032 118.91900422 98.49090098 116.20616402 96 113.5 C91.90648909 109.05272888 88.07557501 104.45282537 84.28125 99.75 C81.93281032 96.91900422 79.49090098 94.20616402 77 91.5 C72.88621091 87.0301488 69.02912703 82.40955107 65.21484375 77.68359375 C63.04367173 75.05291443 60.79758643 72.52057576 58.5 70 C55.40444804 66.60401318 52.44848793 63.13828469 49.5625 59.5625 C45.70174863 54.788597 41.62562925 50.26611572 37.46875 45.75 C34.27118704 42.18815771 31.28611657 38.47434167 28.28125 34.75 C25.93281032 31.91900422 23.49090098 29.20616402 21 26.5 C16.85670768 21.99697997 12.95408224 17.35133346 9.1171875 12.5859375 C6.57935358 9.48622153 3.92172551 6.51099766 1.21484375 3.55859375 C0 2 0 2 0 0 Z " fill="#FFFFFF" transform="translate(3613,336)"/>
</svg>
